<?xml version="1.0" encoding="utf-8"?>
<!-- Generator: Adobe Illustrator 25.2.1, SVG Export Plug-In . SVG Version: 6.00 Build 0)  -->
<svg version="1.1" id="Layer_1" xmlns="http://www.w3.org/2000/svg" xmlns:xlink="http://www.w3.org/1999/xlink" x="0px" y="0px"
	 viewBox="0 0 75 75" style="enable-background:new 0 0 75 75;" xml:space="preserve">
<style type="text/css">
	.st0{fill:none;}
	.st1{fill:#11A0DB;}
</style>
<g>
	<g id="Ellipse_254" transform="translate(273 30)">
		<g>
			<circle class="st0" cx="-235.5" cy="7.5" r="36.7"/>
		</g>
		<g>
			<path class="st1" d="M-235.5,44.7c-20.5,0-37.2-16.7-37.2-37.2s16.7-37.2,37.2-37.2s37.2,16.7,37.2,37.2S-215,44.7-235.5,44.7z
				 M-235.5-27.8c-19.4,0-35.3,15.8-35.3,35.3s15.8,35.3,35.3,35.3s35.3-15.8,35.3-35.3S-216.1-27.8-235.5-27.8z"/>
		</g>
	</g>
	<path id="instagram" class="st1" d="M37.3,17.2c-5.6,0-6.3,0-8.5,0.1c-1.7,0-3.4,0.4-5,1c-1.4,0.5-2.6,1.3-3.6,2.4
		c-1,1-1.9,2.3-2.4,3.6c-0.6,1.6-0.9,3.3-1,5c-0.1,2.2-0.1,2.9-0.1,8.5s0,6.3,0.1,8.5c0,1.7,0.4,3.4,1,5c0.5,1.4,1.3,2.6,2.4,3.6
		c1,1,2.3,1.9,3.6,2.4c1.6,0.6,3.3,0.9,5,1c2.2,0.1,2.9,0.1,8.5,0.1c5.6,0,6.3,0,8.5-0.1c1.7,0,3.4-0.4,5-1c2.8-1.1,4.9-3.2,6-6
		c0.6-1.6,0.9-3.3,1-5c0.1-2.2,0.1-2.9,0.1-8.5s0-6.3-0.1-8.5c0-1.7-0.4-3.4-1-5c-0.5-1.4-1.3-2.6-2.4-3.6c-1-1-2.3-1.9-3.6-2.4
		c-1.6-0.6-3.3-0.9-5-1C43.6,17.2,42.9,17.2,37.3,17.2z M37.3,20.9c5.5,0,6.1,0,8.3,0.1c1.3,0,2.6,0.3,3.8,0.7
		c1.8,0.7,3.2,2.1,3.9,3.9c0.5,1.2,0.7,2.5,0.7,3.8c0.1,2.2,0.1,2.8,0.1,8.3s0,6.1-0.1,8.3c0,1.3-0.3,2.6-0.7,3.8
		c-0.3,0.9-0.9,1.7-1.5,2.4c-0.7,0.7-1.5,1.2-2.4,1.5c-1.2,0.5-2.5,0.7-3.8,0.7c-2.2,0.1-2.8,0.1-8.3,0.1s-6.1,0-8.3-0.1
		c-1.3,0-2.6-0.3-3.8-0.7c-0.9-0.3-1.7-0.9-2.4-1.5c-0.7-0.7-1.2-1.5-1.5-2.4c-0.5-1.2-0.7-2.5-0.7-3.8c-0.1-2.2-0.1-2.8-0.1-8.3
		s0-6.1,0.1-8.3c0-1.3,0.3-2.6,0.7-3.8c0.3-0.9,0.8-1.7,1.5-2.4c0.7-0.7,1.5-1.2,2.4-1.5c1.2-0.5,2.5-0.7,3.8-0.7
		C31.1,20.9,31.8,20.8,37.3,20.9L37.3,20.9L37.3,20.9z M37.3,27.2c-5.8,0-10.5,4.7-10.5,10.5s4.7,10.5,10.5,10.5s10.5-4.7,10.5-10.5
		l0,0C47.9,31.9,43.1,27.2,37.3,27.2L37.3,27.2z M37.3,44.6c-3.8,0-6.8-3.1-6.8-6.8s3.1-6.8,6.8-6.8s6.8,3.1,6.8,6.8
		C44.2,41.5,41.1,44.6,37.3,44.6C37.3,44.6,37.3,44.6,37.3,44.6L37.3,44.6z M50.7,26.8c0,1.4-1.1,2.5-2.5,2.5
		c-1.4,0-2.5-1.1-2.5-2.5c0-1.4,1.1-2.5,2.5-2.5c0,0,0,0,0,0C49.6,24.3,50.7,25.4,50.7,26.8z"/>
</g>
</svg>
