<?xml version="1.0" encoding="utf-8"?>
<!-- Generator: Adobe Illustrator 25.2.1, SVG Export Plug-In . SVG Version: 6.00 Build 0)  -->
<svg version="1.1" id="Layer_1" xmlns="http://www.w3.org/2000/svg" xmlns:xlink="http://www.w3.org/1999/xlink" x="0px" y="0px"
	 viewBox="0 0 75 75" style="enable-background:new 0 0 75 75;" xml:space="preserve">
<style type="text/css">
	.st0{fill:none;}
	.st1{fill:#11A0DB;}
</style>
<g>
	<g id="Ellipse_256" transform="translate(474 30)">
		<g>
			<circle class="st0" cx="-436.5" cy="7.5" r="36.7"/>
		</g>
		<g>
			<path class="st1" d="M-436.5,44.7c-20.5,0-37.2-16.7-37.2-37.2s16.7-37.2,37.2-37.2s37.2,16.7,37.2,37.2S-416,44.7-436.5,44.7z
				 M-436.5-27.8c-19.4,0-35.3,15.8-35.3,35.3s15.8,35.3,35.3,35.3s35.3-15.8,35.3-35.3S-417.1-27.8-436.5-27.8z"/>
		</g>
	</g>
	<path id="logo-twitter" class="st1" d="M58,25c-1.5,0.7-3.2,1.1-4.8,1.3c1.8-1.1,3.1-2.7,3.7-4.7c-1.7,1-3.5,1.7-5.3,2
		c-3.2-3.4-8.5-3.6-11.9-0.4C38,24.9,37,27.1,37,29.4c0,0.6,0.1,1.3,0.2,1.9c-6.8-0.3-13.1-3.5-17.4-8.8c-2.2,3.9-1.1,8.8,2.6,11.3
		c-1.3,0-2.7-0.4-3.8-1.1v0.1c0,4,2.8,7.5,6.8,8.3c-0.7,0.2-1.5,0.3-2.2,0.3c-0.5,0-1.1-0.1-1.6-0.2c1.1,3.4,4.3,5.8,7.9,5.9
		c-3,2.3-6.7,3.6-10.5,3.6c-0.7,0-1.3,0-2-0.1c3.8,2.5,8.3,3.8,12.9,3.8c15.5,0,24-12.8,24-24c0-0.4,0-0.7,0-1.1
		C55.5,28.1,56.9,26.7,58,25z"/>
</g>
</svg>
