<?xml version="1.0" encoding="utf-8"?>
<!-- Generator: Adobe Illustrator 25.2.1, SVG Export Plug-In . SVG Version: 6.00 Build 0)  -->
<svg version="1.1" id="layer" xmlns="http://www.w3.org/2000/svg" xmlns:xlink="http://www.w3.org/1999/xlink" x="0px" y="0px"
	 viewBox="0 0 576 163.1" style="enable-background:new 0 0 576 163.1;" xml:space="preserve">
<style type="text/css">
	.st0{fill:#00A1DF;}
	.st1{fill:#78C1EB;}
</style>
<g>
	<path class="st0" d="M305.1,75.3c-19.9,0-32.1-11.1-32.1-32.8V0.2h16.3v41.9c0,12.1,6,18.3,15.9,18.3c10,0,15.9-6,15.9-17.8V0.2
		h16.3V42C337.5,64.3,325,75.3,305.1,75.3 M413.6,74V0h-16.1v45.6L362.8,0h-15v74h16V27l35.8,47H413.6z M112.2,87.9h-17L79.9,138
		L63.3,87.7H49.3L32.7,138L17.4,87.9H0l25.2,74.5h14.2L56.2,114l16.7,48.4h14.2L112.2,87.9z M148.7,163.1
		c22.8,0,39.5-17.2,39.5-38.3v-0.2c0-21-16.4-38-39.3-38s-39.5,17.2-39.5,38.3v0.2C109.5,146.1,125.9,163.1,148.7,163.1
		 M171.2,125.1c0,12.7-9.1,23-22.2,23c-13.2,0-22.4-10.6-22.4-23.2v-0.2c0-12.7,9.1-23,22.2-23c13.2,0,22.4,10.6,22.4,23.2V125.1z
		 M269.4,161.9v-74h-17.6l-19.5,31.3l-19.5-31.3h-17.5v74h15.9v-48l20.6,31.3h0.4l20.8-31.6v48.3H269.4z M338.3,161.9v-14.5h-40.1
		v-15.6H333v-14.5h-34.8v-15h39.6V87.9H282v74L338.3,161.9L338.3,161.9z M413.4,161.9v-74h-16v45.6L362.7,88h-15v74h16v-47l35.8,47
		L413.4,161.9L413.4,161.9z"/>
	<path class="st0" d="M245.2,16.4c5.9,9.7,4.7,24.5-2.4,33.2c-7.9,10.4-20.8,14.9-33.6,11.3c-11.6-3.1-21.1-14.1-22.2-26.1
		c-1.4-12.7,4.4-24.3,15.2-30.6c8.3-5.1,21-5.7,29.7-0.9C237.1,5.9,242.4,11.1,245.2,16.4 M218.5,1.5c0.1,1.2,0.1,2.8,0,4.1
		c0-0.2,0.2-0.2,0.4-0.3c0.4,0.2,0.4,0.7,0.3,1h-0.1c2.1-0.2,4.1,0.4,6,1c2,0.3,3.7,2.7,5.7,1.3c0.6,0.6,1.5,0,1.8,1
		c0.8,0.2,1.2,0.9,1.7,1.3c-0.1,0.7,0.6,1.1,0.8,1.5v-0.1c0.7-1.2,1.7-2.2,2.9-2.9c-4.1-3.9-9.2-6.4-14.8-7.5
		C221.7,1.8,220,1.9,218.5,1.5 M197.6,9.6l3.5,3.3c4.3-4.1,9.8-6.5,15.8-6.7c-0.2-1.4-0.2-3.1-0.1-4.6C209.4,2,203,4.7,197.6,9.6
		 M240.3,2.5l2.2,2.2c2.2,3.5,5.4,6.9,8.5,9.1c-0.7-1.4-0.8-3-1.5-4.4C248.2,5.6,243.8,3.8,240.3,2.5 M194.9,3
		c-2.8,1.1-5.8,2-7.8,4.6c-1.6,2.1-2.1,4.6-2.9,6.9l2.4-2.1C190.4,9.8,191.3,5.6,194.9,3 M222.1,4l-2.1,1c-0.2,0.1-1-0.3-0.9,0.4
		c0.4,0.3,0.8,0.6,1.3,0.6c1.3-0.6,2.9,0.4,3.9-0.9C224.2,4.2,223,4.1,222.1,4 M248.7,6.6c3.1,2,2.9,5.8,3.9,8.8
		c0.3,1.2,1.1,2.4,1.2,3.7c-1.6-4.8-7.2-5.3-9.2-9.8l0.7,2.6c1.5,5.1,7.7,6.3,10,11c-0.7-3.4,0.6-6.9-0.5-10.2
		C253.9,9.9,251.6,7.4,248.7,6.6 M181.5,11.2c-2.3,3.5-0.5,8.3-1.2,12.3c0.9-1.6,2.5-3.3,3.8-4.4c3.3-2.1,6.2-5.5,6.3-9.2
		c-1.7,4.4-7.5,5-8.9,9.8h-0.2c2.1-3.9,1-9.5,5-12.4C184.4,7.7,182.6,9.3,181.5,11.2 M218.5,7.7c0.2,1.4,0.1,3.2,0.1,4.6
		c3.6,0.1,7.1,1.2,10,3.4c-0.3-0.1-0.6-0.8-0.6-1.1h0.1c0.1-0.5-0.8-0.8-0.5-1.2c0.7,0.1,1.2,1.1,1.6,1.5c2,0,0.9,2.3,2.3,3.1
		c0.4,0.2-0.1,0.9,0.5,0.9c0.5,0.4,1.1,0.8,1,1.3c0.2,1.1,1-0.3,1.4,0.4c0.4,0.3-0.3,0.5-0.2,0.9c0.3,0.1,0.5-0.3,0.7,0.1
		c0.1,0.4-0.2,0.5-0.4,0.7c-0.2,0.6,0.6,0.3,0.8,0.6c0.3,0.7,0.6,1.7,0.1,2.5c0.8,0.8-0.1,1.6-0.3,2.3c-0.5,0.5-0.6,1.6-1.6,1.3
		c-0.2,0.4,0.1,0.9-0.1,1.2l1.7,0.1c-1-1.4,0.3-2.7,0.7-3.9c0.2-0.1,0.5-0.5,0.7-0.1c-0.1,0.6-0.2,1.2-0.2,1.7
		c0.5,0.7,0.3,1.6,0.4,2.4l4.4-0.1c-0.3-3-1-5.8-2.2-8.4c-0.3,0.1-0.7,0.4-1.1,0.2c-0.5-0.7-0.9-1.4-1.6-2c-0.6,0-1-0.5-1.4-0.8
		c-1.1,0-0.7-1.4-1.6-1.2c-0.6-0.3-0.9-0.5-1.1-1.2c0-0.7-0.1-1.5-0.8-2.1c-0.4-0.2-0.7,0.1-1,0.3c-0.6,0.4-0.8-0.3-0.8-0.7
		c-0.6-0.5,0-1-0.3-1.5c-0.9-0.7-0.5-2-1.6-2.6c-1.9-1-3.9-1.5-6-1.9C220.7,8.1,219.6,8.1,218.5,7.7 M231.7,7.7
		c-0.2,0.1-0.2,0.5-0.1,0.6c0.8,0.1,0.8,1.3,1.6,0.8l-0.2-0.9C232.9,7.7,232.1,8,231.7,7.7 M202,14.1c1.2,0.8,2.3,2.1,3.3,3.2
		c3.1-3,7.2-4.8,11.6-4.9c-0.1-1.4-0.1-3,0-4.5C211.2,8.4,206.1,10.4,202,14.1 M239,10.6l-3.1,3.3l-0.5,0.1c0.4,0,0.3,0.5,0.6,0.7
		c1.2,0.9,1.8,2.2,3,3.2c0.4,1,1.4,1.6,1.4,2.9c1.5,2.9,2.2,6.3,2.4,9.7c1.5-0.2,3.2-0.2,4.7-0.2l-0.2-0.1
		C247,22.4,243.9,16,239,10.6 M196.6,11.2l-0.1-0.5c-5,5.4-7.8,12.2-8.2,19.6l4.7,0.1c-0.2-1.5,0.2-3,0.4-4.4
		c1-4.4,2.9-8.5,6.2-11.7L196.6,11.2z M255.4,12.2c2.1,3.2,1,7.5,0.8,11.1c0.1,1.7,0.4,3.6,0.3,5.3c-0.3-0.7-0.3-1.4-0.5-2.2
		c-0.9-3.9-5.6-6-7.4-9.2c0.3,1.2,0.5,2.3,0.9,3.4c1.6,4.7,6.5,7.9,7.2,13c0.5-4.9,3.8-8.7,2.6-14C258.4,16.8,257.4,14.2,255.4,12.2
		 M179.8,12.9c-1.6,2-2.8,4.4-3.4,6.9c-1.2,5.4,2.1,9.4,2.8,14.3c1-6.1,7.4-10,7.7-16.3c-1.9,3.5-6.4,5.5-7.3,9.5
		c0,0.7-0.2,1.3-0.4,1.9l-0.1-0.2l0.2-2.6C180.2,21.7,177.4,16.8,179.8,12.9 M216.9,13.9l-0.2,0.1c-4,0.2-7.3,2-10.5,4.4
		c1.2,0.8,2.1,2,3.3,3.1c1.9-1.8,4.5-3,7.2-3.1C216.7,17.1,216.7,15.3,216.9,13.9 M218.5,14c0.2,1.3,0.2,3,0.1,4.4
		c2.7,0.2,5.6,1.3,7.5,3.1c1.1-1.1,2.1-2.4,3.3-3.1C226.2,15.8,222.6,14.2,218.5,14 M200.7,15.1v0.3c-3.6,4.2-5.8,9.2-6.1,15
		c1.5,0,3.2-0.1,4.6,0.1l-0.1-0.2c0.3-4.5,1.9-8.5,5-11.8C202.8,17.3,201.7,16.3,200.7,15.1 M230.4,19.3c-1.3,1.5-3.1,3.2-4.4,4.7
		c0.1,0.2,0.3,0.5,0.4,0.4c0.4-0.5,0.1-1.5,1.1-1.3c1,0.3,1.8,0.2,2.9,0.4c0.6,0.3,0.7,1.1,1.2,1.3c0.2,0.3-0.1,0.5-0.2,0.7
		c0.1,0.1,0.2,0.2,0.3,0.4c0.3-0.3,0.7-0.6,1.2-0.5c0.6,0,0.7,0.8,1.2,0.9c0.2,0.3-0.2,0.6-0.4,0.7c0.1,0.6-0.5,0.8-0.3,1.2
		c0.3,0.1,0.6-0.1,0.7-0.3c1.1-0.8,0.2-1.8,0.1-2.9c-0.5-0.9-1.3-1.1-2.1-1.7c0-0.3,0.2-0.6,0.5-0.8
		C232.3,21.3,231.1,20.5,230.4,19.3 M205.2,19.5c-1,1.2-1.9,2.6-2.6,3.9c-1.2,2.1-1.4,4.5-1.9,6.8l1.9-0.1c-0.3-0.4-0.3-0.9-0.3-1.3
		c0.5-1,0.6-2.6,2-2.5c0.7-0.2,0-0.7,0.5-1c1-0.2,1.2-1.1,2.1-1.5c0.8-0.1,1-1.2,1.7-1.2C207.3,21.8,206.4,20.6,205.2,19.5
		 M218.6,20.1l0.1,3.2l1.2,0.4c0.4-0.6,1-0.8,1.3-1.2c0.4-0.2,0.4,0.3,0.6,0.5c0.2,1.4-1.3,2-2.2,2.6h0.4c0.9-1,1.4,1.2,2.3,0.2
		c0.2-1.2,1.8-1.1,2.2-2.2c-0.3,0.3-0.5,0-0.7-0.1c0.1-0.4,0.7-0.7,0.9-1C222.9,21.2,220.9,20.4,218.6,20.1 M216.8,20.2
		c-2.4,0.4-4.7,1.2-6.4,3.2c0.6,0.1,1.2,0.4,1.6,0.8c0.2,0.3-0.3,0.3-0.3,0.5c0.4,0.6,0.4-0.1,0.8-0.2c0.4,0.4,0.7,0.6,1.2,0.4
		c0.3,0.4,0.7,0,1,0.1c0.1-0.4,0.6-0.7,0.4-1.1c0.2-0.3,0.3-0.9,0.7-0.9c-0.3,1.3,1.1,0,1.3,0.7C216.7,22.5,217,21.2,216.8,20.2
		 M260.3,23.5c0.8,4.7-2,8.3-3.2,12.3c-0.7,1.5-0.4,3.6-1.3,4.9c-0.1-0.8,0.4-1.5,0.5-2.4c0.7-5.3-3.8-8.4-4.9-12.8
		c-0.1,1.2,0,2.3,0.2,3.4c0.3,5.6,3.8,10,2.9,15.7c1.1-1.3,1.8-2.8,3.1-4C261.6,36.3,262.7,29,260.3,23.5 M175.4,24.1
		c-1.5,3.5-1.4,8.1-0.3,11.7c1,3.7,4.5,6.3,6.4,9.6c-0.3-1.3-0.3-3.1-0.1-4.4c1.2-4.8,3.2-9.5,2.9-14.9c-0.8,3.8-4.1,6.5-4.6,10.6
		c-0.3,1.6,0.1,3.2,0.4,4.6c-0.4-0.8-0.8-1.5-0.8-2.5C178.7,33.5,174.5,29.7,175.4,24.1 M216.7,26L216.7,26c0.2,0.5,0.5,1.2,0.1,1.4
		c-0.5,0.7-1.7,0.6-1.9,1.4c-1.3,0.4-0.9,2.1-1.2,3.2c-0.9,0.2-0.6-0.9-1-1.2l-0.2,0.3c-1.3-1.1-1.1,1.2-1.9,1.3
		c1,0.2,1.7-0.3,2.6-0.4c0.1,0.1,0.3,0.2,0.2,0.4h0.2c0.2-0.2,0.2-0.5,0.2-0.8c0.1-0.3,0.5-0.5,0.7-0.3c-0.1,0.3,0.1,0.5,0.4,0.7
		l-0.5,0.7c-0.3,0.3,0.1,1.1-0.6,1.1c-0.1,0-0.3-0.1-0.2-0.2h-0.2l0.4,0.7c0.4,0,0.3-0.8,0.9-0.9c0.5-0.1,0.5-0.7,0.5-1.1
		c0.6-0.6,1.3-0.2,2-0.3c0.2,0.2,0.6,0.2,0.5,0.6c0.3,0.5-0.2,1.1-0.5,1.5c0.2,0.3-0.2,0.5-0.2,0.9c-0.6,0.6-1.2,0.3-1.9,0.5
		c1,0.7,1.9,1.1,3.2,1c1.2,0.1,0.6-1.3,1.4-1.8c0.5-0.1,1,0.1,1.4-0.1c0.2-0.5,0.3-1,0.4-1.4c-0.5-0.2-0.3-0.8-0.4-1.2
		c-0.3-0.4-0.3-1-0.9-1.1c-0.1-0.3,0.2-0.5,0.2-0.8c0.9-0.3-0.5-0.9,0.1-1.3c-1-0.2-1.2-1.7-2.4-1.2c-0.3-0.4-1.1-0.6-1.1-1.2
		c0.1-0.4,1.1-0.3,1-0.2c-0.1-0.1-0.2-0.2-0.2-0.3C217.3,25.7,216.9,25.7,216.7,26 M204.3,29.7c-1.1,0.4,0,1.3-0.1,2
		c-0.1,0.6-0.7,0.1-1,0.4c0.2,0.9-0.6,1.1-1.2,1.2c-0.2,0.6,0.5,0.9,0.2,1.4c0.8,0.8,1.3,1.7,1.2,2.9c0.6,0.8,0.4,2,0.6,3
		c0.5,0.5,0.7,1.2,0.7,1.9c0,0.4-0.4,0.5-0.6,0.7c-0.3,0.4,0.2,0.2,0.2,0.5l3.8-4c-1.3-1.5-2.4-3.6-2.9-5.9l-0.5-0.3
		c-0.1,0.6-0.1,1.3-0.6,1.5c-0.3-0.2-0.8-0.4-0.8-0.9c0.1-0.3,0.4-0.1,0.7-0.2c0-0.3,0-0.5,0.1-0.8c0.1-0.3-0.5-0.6-0.1-0.9
		c0.4,0,0.5,0.4,0.8,0.6l0.7-0.4c-0.2-0.7,0.2-1.7-0.1-2.4C205.4,29.6,204.8,29.7,204.3,29.7 M232.8,30.3h0.4H232.8z M232.3,31.7
		l0.8,0.9c0,1.1,1.3,1.3,1.4,2.4c0.3-1,0.3-2,0.6-3C234.1,31.9,233.1,32.2,232.3,31.7 M242.7,31.7l0.1,0.3
		c-0.3,6.1-2.8,11.7-6.7,15.8c1.1,1,2.3,2.3,3.4,3.4c3.8-4.4,6.5-9.4,7.4-15.1c0.3-1.4,0.2-3,0.7-4.4c-1.4,0.4-3.1,0.2-4.7,0.2
		L242.7,31.7z M236.7,31.8c0.2,0.6-0.2,1.2-0.2,1.7c-0.6,1.1,0.8,1.2,0.4,2.2c-0.3,0.2-0.5,0.2-0.9,0.1c-0.8,2.9-2.1,5.5-4.1,7.7
		h-0.2c0.5,0.3,0.9,1.1,1.4,1.2v-0.4c0.1-0.1,0.2-0.3,0.4-0.2c1.2,0.4,1.2,1.9,1.3,2.6c3-3.1,4.8-6.8,5.7-10.8
		c0.3-1.3,0.2-3,0.7-4.1C239.8,32,238.1,32.1,236.7,31.8 M200.6,31.9c0.3,1.1,0.7,2.2,0.4,3.4c0-0.5,1.2-1.1,0.2-1.5
		c0.4-0.6,0.1-1.6,0.8-1.7C201.5,32.1,201.1,32.1,200.6,31.9 M188.4,32c0.3,7.4,3.1,13.8,7.9,19.3c1.1-1.2,2.3-2.4,3.5-3.4
		c-0.6-0.4-1-1.1-1.5-1.5c-0.8-0.2-1.2-0.9-1.4-1.4c0,0.1-0.1,0.2-0.2,0.2c-0.7,0.3-0.9-0.5-1.3-0.8c-0.4-0.2-0.1-1.2-0.8-0.8
		c-0.4-0.7-1.2-0.6-1.4-1.3l-0.3,0.5c-0.5,0-0.9-0.7-1.2-1c-1.1,0.3-0.7-1.2-1.2-1.6c-0.2-1,0.1-1.8,0.6-2.5c0.3-0.3,1-0.1,1.1,0.1
		c0.6,0.2,0.2-0.5,0.5-0.6c0.8-0.7,1.2,0.3,1.6,0.8c-0.7-1.8-1.1-4-1-6C191.6,32.2,190,32.1,188.4,32 M194.6,32l0.2,0.2
		c0.1,2.1,0.8,4.1,0.9,6.1c0.3-0.2,0.1-0.7,0.5-0.7c0.1-1,0.3-2.1,0.9-3c1,0,1-1.2,1.9-1.2c0.2,0.2,0.6,0.4,0.7,0.7
		c-0.5-0.6-0.5-1.5-0.3-2.2C197.8,32.2,196,32.2,194.6,32 M207.2,33.8l0.3,0.5c0.4,1.4,1.2,2.7,1.9,3.9l1.3-1.4
		c0-0.2,0.1-0.4-0.1-0.5c-0.3-0.4-0.1-1-0.5-1.2c-0.1,0.3,0.3,0.5,0.1,0.8c-0.5-0.2-0.9-0.4-1.2-0.9c0.1-0.7-0.4-0.2-0.8-0.5
		C208.4,33.8,207.5,34.2,207.2,33.8 M212.1,35c-0.1,0.4-0.4,0.7-0.7,1.1c0.4-0.2,0.7-0.8,1.1-0.8L212.1,35z M252,35.6
		c-2.8,6-0.8,13.8-4.1,19.5l0.6-0.5c6.5-3.6,14.4-9.6,13.1-18.3c-0.1,1.2-0.5,2.3-1.1,3.3c-2.6,3.9-6.9,7.2-9,11.3
		c-0.1,0.2-0.3,0.2-0.4,0.1l0.5-0.6C254.6,45.9,251.8,40.5,252,35.6 M224.4,36c-0.7,0.9,0.6,0.9,0.7,1.6c0.2,0,0.3,0.1,0.4-0.1
		c-0.1-0.3-0.1-0.7-0.4-0.9C224.6,36.7,224.6,36,224.4,36 M183.8,36.1c0.4,1.9-0.3,3.6-0.6,5.3c-1,3.4-0.5,7.2,1.4,10
		c-0.7-0.3-1.1-1.1-1.4-1.7c-2.4-4.6-8.4-7.2-9-12.8c0,2,0,4.1,0.6,6c1.7,6.2,8.5,9.4,13.2,12.5C184.7,49.8,186.4,42.1,183.8,36.1
		 M232.1,36.4c-0.9-0.7-0.7,0.6-1.4,0.5c-0.3-0.1-0.3-0.4-0.4-0.7c-0.1,0.7-0.6,1.2-1,1.7c-1.3-0.4-1,1.5-2.3,1.1
		c0.2,0.5,0.8-0.1,1.1,0.1c0.2-0.1,0.2-0.4,0.3-0.5c0.2-0.6,0.8-0.8,1.3-0.6c0.3,0.5,0.4,1.1,0.4,1.6c-0.3,0.2-0.3,0.6-0.3,1
		c-0.4,0.7-0.2,2.1-1.4,1.9c-1.2-0.5-2.7-0.8-4-0.9V42c1,0.4,2,0.4,2.7,1.1c0.8-0.1,1.8,0.1,2.4-0.4c0.1-0.6,0.3-1.1,0.7-1.5
		c0.5,0.1,0.4,0.8,0.7,1.1c1.5-1.9,2.9-3.8,3.4-6.1C233.5,36.1,232.9,36.5,232.1,36.4 M213.5,36.3l-2.8,3.2c1.6,1.2,3.5,2.2,5.5,2.5
		c0-0.6,0-1.1,0.3-1.5c0.3-0.2,0.8,0.1,1-0.2c0-0.3-0.2-0.3-0.4-0.5c-0.2-0.4,0-0.8,0.1-1.1c0.1-0.2-0.2-0.7,0.2-0.8
		c-0.9,0.5-1.7-0.2-2.5-0.5C214.4,37.1,213.6,37,213.5,36.3 M222.4,39.5c0.4-0.5,1.1-0.4,1.2-0.9C223.1,38.4,222.3,38.9,222.4,39.5
		 M224.1,40.2c-0.3,0.2-0.6,0.2-0.8,0.6c-0.4,0.5-0.9,0-1.2-0.2c0.1,0.2,0.4,0.5,0.1,0.7c-0.4,0.4-0.8-0.2-1.1-0.3
		c-0.2,1.2-0.7-0.4-1.3-0.1c-0.3-0.8-0.8,0.1-1.2,0.1c-0.4,0.3-0.4,1.2-1.1,1.1c-0.2,0.4-0.7,0.3-0.8,0.6c0.3,0.4,0.8,0.2,1.1,0.1
		c0.6-0.5,1.2-0.2,1.9-0.3c-0.1,1.1,1.2,0.3,1.5,0.9c0.5,0,0.5-0.5,0.6-0.8c0.9-0.2,1.8-0.7,2.3-1.4
		C224.4,40.8,224.4,40.3,224.1,40.2 M209.3,40.6c-1,1.2-2,2.2-3.2,3.2h0.3c2.6,2.2,5.8,3.7,8.7,4.2c-1.1-0.1-1.5-1.2-2-2
		c-0.3-0.7,0.7-0.8,0.6-1.5c0.4-0.6,1-1,1.6-1.1c-0.4,0.1-0.7,0.1-1.1,0.2C212.4,43,210.6,42.2,209.3,40.6 M249.2,44.3l-2.4,3.2
		c-3.3,4.5-2.9,10.7-7.4,14.5c2.3-0.8,4.9-1.1,7.4-1.6c5.5-1.3,11.2-6.8,12-12.4c-1,2.3-3.1,4.1-5.1,5.5c-3.6,1.7-7.2,3.6-10.3,6.2
		h-0.4l0.2-0.3C248.4,56,247,49.3,249.2,44.3 M230.7,44.7L230.7,44.7c-2.2,1.6,1.1,1.6,1.2,3c-0.3,0.7-1.4,1.2-0.8,2
		c0.2,0.3-0.1,0.5-0.2,0.7l3-2.5c-0.4,0.3-0.9,0.1-1.1-0.3C232.8,46.3,231.2,45.7,230.7,44.7 M186.6,44.9l0.9,2.1
		c0.8,4.8,1.2,10.1,5.6,13.2l-0.1,0.1c-1.4-0.6-2.5-1.8-3.7-2.6c-4.1-2.7-9.8-3.8-12.1-8.9c0.7,3.7,3.2,7.1,6.2,9.4
		c3.6,3.3,8.8,3,13.2,4.3c-1.6-1.2-2.6-2.7-3.4-4.5C191.6,53.2,190.2,48.5,186.6,44.9 M206,45.8l0.4,0.5L206,45.8z M206.5,46.3
		c0,0.5,0.7,0.5,0.4,1.2c-1,0.6-2.2,0.2-3.2,0.9c-0.9,0.5-1.6-0.6-2.1-0.5c4.2,3.6,9.2,6,14.9,6.3l0.4,0.2c-0.2-1.3-0.2-3-0.1-4.4
		C213,50.1,209.5,48.5,206.5,46.3 M235,48.9c-0.7,0.9-1.5,1.7-2.4,2.2c-3,1.1-3.3,4.4-6.2,5.5c-1.2,0.5-1.8-1.1-2.9-1.2
		c-1.5,0.3-3.2,0.7-4.8,0.5v4.9l0.2-0.1c7.5-0.3,14.2-3.3,19.5-8.2C237.1,51.2,235.9,50,235,48.9 M200.7,49.2l-3.3,3.4
		c5.5,4.9,12.1,7.6,19.5,8.1l-0.2-0.4c0.1-1.4-0.1-3,0.2-4.4l-0.1,0.1C210.7,55.8,205.1,53.5,200.7,49.2 M218.4,50.2l0.3,0.5
		l-0.1,3.6c1.1-0.4,2.6-0.4,3.6-0.6c-0.6-0.6-1.4-0.5-1.7-1.3c-0.4-0.6,0.2-1.2,0.1-1.7C219.9,50.4,218.9,50.9,218.4,50.2 M243,53.7
		c-3.4,2.2-6.2,5.9-9.2,8.3c-1.6,1.2-3.6,1.6-5.7,2.2c4.3,0.3,8,2.4,12.5,2.1c4.9-0.2,9.3-3.1,11.6-7.4c-3.4,4-8.7,3.7-13.7,4.2
		c-1.6,0.2-3.3,0.7-4.9,0.7c0.1-0.1,0.1-0.2,0.2-0.1C239.2,63.2,240.8,57.3,243,53.7 M192.8,54.1c2.2,2.6,2.3,6,5.4,8.2
		c1.2,1.1,2.8,1.2,4.1,1.8c-1.4,0.2-2.9-0.5-4.3-0.6c-5-0.6-10.7,0-14.3-4c1.6,2.9,4.6,5.4,7.7,6.4c5.8,2.2,11-1.1,16.5-1.5
		C201.4,64.1,198,57.1,192.8,54.1 M234.4,67.6c-5-2.2-10.7-4.8-16.5-2.6c-2.9-1-6.7-1-9.7,0c-5.1,2.3-12,5.9-17.5,1.9
		c1.1,1.2,2.1,1.8,3.3,2.6c3.5,2.2,8.4,2,12.1,0.2c3.3-1.3,5.9-5.6,10-4.2c-3.6,1.8-6.8,3.9-9.8,7l1.8,1.5c2.6-3.5,6.1-6.3,9.9-8
		c3.6,1.7,7,4.8,9.7,7.9l1.8-1.5c-2.9-2.8-6.2-5.1-9.7-6.8c0.9-0.2,2-0.2,2.9-0.1c3.7,1.6,6.6,5,10.9,5.5c4.5,0.8,8.5-1.1,11.3-4.4
		l-2.1,1.2C240.4,68.8,237,68.5,234.4,67.6"/>
	<path class="st1" d="M500.5,23c-10.2-0.5-19.9-1.8-28.5-4V0.1h28.5V23z M460.2,15.3V0.1h-20.7v3.7c3.1,2.6,7,5.2,11.4,7.4
		C453.7,12.7,456.9,14,460.2,15.3 M500.5,34.8c-10.1-0.5-19.7-1.6-28.5-3.6v24.8c8.7,4.5,18.3,7.3,28.5,8.3V34.8z M460.2,48.4V27.9
		c-7.8-2.6-14.7-5.8-20.7-9.5v6.1C444.7,33.7,451.8,41.9,460.2,48.4 M471.8,138.6v-13.3h28.7v-2.9v-10.5h-28.7V98.5h28.7V76
		c-24.4-1.9-46.1-13.5-61.2-31v116.6h61.2v-23.1L471.8,138.6L471.8,138.6z"/>
	<path class="st0" d="M514.8,0.1h27.4v19.1c-8.4,2-17.6,3.4-27.4,3.7V0.1z M569.9,21.8c-4.8,2.4-10.2,4.5-15.9,6.3v21.1
		c9-6.6,16.5-15.2,22-25v-6C574.1,19.5,572,20.7,569.9,21.8 M542.2,56.5C542.2,56.4,542.1,56.4,542.2,56.5V31.3
		c-8.5,1.8-17.8,3.1-27.4,3.5v29.4C524.5,63.3,533.8,60.6,542.2,56.5 M553.9,0.1v15.6c9.1-3.3,16.6-7.3,22-11.8V0.1H553.9z
		 M514.8,76.1v22.6h27.5V112h-27.5v10.5v2.9h27.5v13.3h-27.5v23.1H576V45C560.9,62.4,539.2,74.1,514.8,76.1"/>
</g>
</svg>
